# xmcd CD database file
#
# Track frame offsets:
#	150
#	24795
#	42972
#	59950
#	75865
#	88185
#	102410
#	113545
#	126832
#	136302
#	149315
#	162937
#	177902
#	190472
#	203810
#	220977
#	233145
#	246457
#	261222
#	273757
#	287642
#	299860
#
# Disc length: 4187 seconds
#
# Revision: 0
# Processed by: cddbd v1.5.1PL2 Copyright (c) Steve Scherf et al.
# Submitted via: CDex 1.51
#
DISCID=50105916
DTITLE=Various Artist - El Gran Tesoro De La Musica Cubana Vol. 3
DYEAR=2004
DGENRE=Salsa
TTITLE0=Cachao y su Tipica Gigante/Ano Del
TTITLE1=Amelita Frades/La Lupe
TTITLE2=Esther Borja/Despertar
TTITLE3=Gina Leon/Debi Llorar
TTITLE4=Barbarito Diez y la Orquesta de Antonio Maria Romeu/Volvi A Querer
TTITLE5=Grupo Cubano de Musica Moderna/Noche Cubana
TTITLE6=Los Zafiros/La Caminadora
TTITLE7=Conjunto Chappottin/La Guarapachanga
TTITLE8=Elena Burke/Aqui de Pie
TTITLE9=Celeste Mendoza y el Coro Folclorico Cubano/La Ultima Rumba
TTITLE10=Cuarteto de Meme Solis/Otro Amanecer
TTITLE11=Pello el Afrokan y su Ritmo Mozambique/Maria Caracoles
TTITLE12=Los Papines/Taska Taska
TTITLE13=Moraima Secada/Perdoname Conciencia
TTITLE14=Rosita Fornes/Que Te Pedi
TTITLE15=Septeto Nacional "Ignacio Pinerio"/Que Bonita Es Cuba
TTITLE16=Orquesta Cubana de Musica Moderna/El Manisero
TTITLE17=Bola de Nieve/No Puedo Ser Feliz
TTITLE18=Roberto Faz y su Conjunto/Las Cositas Que Tiene Cuba
TTITLE19=Orquesta Aragon dirigida por Rafael Lay/El Bodeguero
TTITLE20=Conjunto Caney dirigido por Benitico Llanes/Quiereme Mucho
TTITLE21=Cuarteto D'Aida/Asi Quiero, Corazon
EXTD=YEAR: 2004
EXTT0=
EXTT1=
EXTT2=
EXTT3=
EXTT4=
EXTT5=
EXTT6=
EXTT7=
EXTT8=
EXTT9=
EXTT10=
EXTT11=
EXTT12=
EXTT13=
EXTT14=
EXTT15=
EXTT16=
EXTT17=
EXTT18=
EXTT19=
EXTT20=
EXTT21=
PLAYORDER=
